<svg id="visual" viewBox="0 0 900 600" width="900" height="600" xmlns="http://www.w3.org/2000/svg" xmlns:xlink="http://www.w3.org/1999/xlink" version="1.1"><g stroke-width="1" stroke-linejoin="bevel"><path d="M413 315L302 391L414 398Z" fill="#15384f" stroke="#15384f"></path><path d="M413 315L289 317L302 391Z" fill="#1d4e6b" stroke="#1d4e6b"></path><path d="M413 315L361 238L289 317Z" fill="#0c2435" stroke="#0c2435"></path><path d="M168 168L226 325L289 317Z" fill="#00101c" stroke="#00101c"></path><path d="M289 317L226 325L302 391Z" fill="#00101c" stroke="#00101c"></path><path d="M289 533L366 500L302 391Z" fill="#19435d" stroke="#19435d"></path><path d="M302 391L366 500L414 398Z" fill="#297ea6" stroke="#297ea6"></path><path d="M226 325L195 371L302 391Z" fill="#1d4e6b" stroke="#1d4e6b"></path><path d="M489 488L536 410L414 398Z" fill="#0c2435" stroke="#0c2435"></path><path d="M414 398L536 410L413 315Z" fill="#0c2435" stroke="#0c2435"></path><path d="M518 187L339 171L361 238Z" fill="#297ea6" stroke="#297ea6"></path><path d="M366 500L489 488L414 398Z" fill="#19435d" stroke="#19435d"></path><path d="M518 187L361 238L413 315Z" fill="#15384f" stroke="#15384f"></path><path d="M361 238L339 171L289 317Z" fill="#0c2435" stroke="#0c2435"></path><path d="M229 515L289 533L302 391Z" fill="#205a7a" stroke="#205a7a"></path><path d="M366 500L368 600L489 488Z" fill="#00101c" stroke="#00101c"></path><path d="M536 410L534 272L413 315Z" fill="#1d4e6b" stroke="#1d4e6b"></path><path d="M195 371L229 515L302 391Z" fill="#0c2435" stroke="#0c2435"></path><path d="M168 168L138 294L226 325Z" fill="#0c2435" stroke="#0c2435"></path><path d="M226 325L138 294L195 371Z" fill="#205a7a" stroke="#205a7a"></path><path d="M195 371L113 412L229 515Z" fill="#246688" stroke="#246688"></path><path d="M534 272L518 187L413 315Z" fill="#277297" stroke="#277297"></path><path d="M424 62L289 132L339 171Z" fill="#0c2435" stroke="#0c2435"></path><path d="M339 171L289 132L289 317Z" fill="#246688" stroke="#246688"></path><path d="M590 500L599 367L536 410Z" fill="#246688" stroke="#246688"></path><path d="M536 410L599 367L534 272Z" fill="#0c2435" stroke="#0c2435"></path><path d="M534 272L611 175L518 187Z" fill="#246688" stroke="#246688"></path><path d="M324 600L366 500L289 533Z" fill="#246688" stroke="#246688"></path><path d="M324 600L368 600L366 500Z" fill="#19435d" stroke="#19435d"></path><path d="M188 600L324 600L289 533Z" fill="#0c2435" stroke="#0c2435"></path><path d="M138 294L113 412L195 371Z" fill="#112e42" stroke="#112e42"></path><path d="M229 515L188 600L289 533Z" fill="#246688" stroke="#246688"></path><path d="M599 367L619 317L534 272Z" fill="#19435d" stroke="#19435d"></path><path d="M289 132L168 168L289 317Z" fill="#0c2435" stroke="#0c2435"></path><path d="M503 600L590 500L489 488Z" fill="#297ea6" stroke="#297ea6"></path><path d="M489 488L590 500L536 410Z" fill="#081a28" stroke="#081a28"></path><path d="M599 367L674 432L619 317Z" fill="#1d4e6b" stroke="#1d4e6b"></path><path d="M368 600L503 600L489 488Z" fill="#1d4e6b" stroke="#1d4e6b"></path><path d="M611 175L531 121L518 187Z" fill="#081a28" stroke="#081a28"></path><path d="M518 187L424 62L339 171Z" fill="#00101c" stroke="#00101c"></path><path d="M111 600L188 600L229 515Z" fill="#277297" stroke="#277297"></path><path d="M531 121L424 62L518 187Z" fill="#0c2435" stroke="#0c2435"></path><path d="M289 132L168 95L168 168Z" fill="#15384f" stroke="#15384f"></path><path d="M168 168L95 206L138 294Z" fill="#246688" stroke="#246688"></path><path d="M138 294L0 305L113 412Z" fill="#205a7a" stroke="#205a7a"></path><path d="M0 412L76 479L113 412Z" fill="#205a7a" stroke="#205a7a"></path><path d="M113 412L76 479L229 515Z" fill="#205a7a" stroke="#205a7a"></path><path d="M619 317L611 175L534 272Z" fill="#00101c" stroke="#00101c"></path><path d="M590 500L674 432L599 367Z" fill="#0c2435" stroke="#0c2435"></path><path d="M619 317L738 268L611 175Z" fill="#0c2435" stroke="#0c2435"></path><path d="M739 511L674 432L590 500Z" fill="#1d4e6b" stroke="#1d4e6b"></path><path d="M324 0L168 95L289 132Z" fill="#297ea6" stroke="#297ea6"></path><path d="M168 168L93 125L95 206Z" fill="#081a28" stroke="#081a28"></path><path d="M76 479L111 600L229 515Z" fill="#1d4e6b" stroke="#1d4e6b"></path><path d="M503 600L614 600L590 500Z" fill="#297ea6" stroke="#297ea6"></path><path d="M168 95L93 125L168 168Z" fill="#15384f" stroke="#15384f"></path><path d="M95 206L0 305L138 294Z" fill="#277297" stroke="#277297"></path><path d="M461 0L381 0L424 62Z" fill="#246688" stroke="#246688"></path><path d="M424 62L324 0L289 132Z" fill="#297ea6" stroke="#297ea6"></path><path d="M168 95L134 0L93 125Z" fill="#1d4e6b" stroke="#1d4e6b"></path><path d="M461 0L424 62L531 121Z" fill="#15384f" stroke="#15384f"></path><path d="M737 195L614 104L611 175Z" fill="#246688" stroke="#246688"></path><path d="M611 175L614 104L531 121Z" fill="#19435d" stroke="#19435d"></path><path d="M381 0L324 0L424 62Z" fill="#15384f" stroke="#15384f"></path><path d="M0 199L0 305L95 206Z" fill="#1d4e6b" stroke="#1d4e6b"></path><path d="M76 479L0 600L111 600Z" fill="#19435d" stroke="#19435d"></path><path d="M0 305L0 412L113 412Z" fill="#081a28" stroke="#081a28"></path><path d="M629 0L461 0L531 121Z" fill="#297ea6" stroke="#297ea6"></path><path d="M0 412L0 469L76 479Z" fill="#19435d" stroke="#19435d"></path><path d="M793 274L738 268L806 410Z" fill="#19435d" stroke="#19435d"></path><path d="M674 432L738 268L619 317Z" fill="#277297" stroke="#277297"></path><path d="M93 125L0 199L95 206Z" fill="#081a28" stroke="#081a28"></path><path d="M324 0L164 0L168 95Z" fill="#246688" stroke="#246688"></path><path d="M93 125L0 108L0 199Z" fill="#297ea6" stroke="#297ea6"></path><path d="M691 600L739 511L590 500Z" fill="#19435d" stroke="#19435d"></path><path d="M738 268L737 195L611 175Z" fill="#0c2435" stroke="#0c2435"></path><path d="M614 600L691 600L590 500Z" fill="#081a28" stroke="#081a28"></path><path d="M164 0L134 0L168 95Z" fill="#297ea6" stroke="#297ea6"></path><path d="M0 469L0 600L76 479Z" fill="#0c2435" stroke="#0c2435"></path><path d="M0 0L0 108L93 125Z" fill="#297ea6" stroke="#297ea6"></path><path d="M806 410L738 268L674 432Z" fill="#112e42" stroke="#112e42"></path><path d="M738 268L805 225L737 195Z" fill="#19435d" stroke="#19435d"></path><path d="M732 77L614 104L737 195Z" fill="#0c2435" stroke="#0c2435"></path><path d="M701 0L629 0L614 104Z" fill="#081a28" stroke="#081a28"></path><path d="M614 104L629 0L531 121Z" fill="#00101c" stroke="#00101c"></path><path d="M739 511L806 410L674 432Z" fill="#19435d" stroke="#19435d"></path><path d="M801 529L806 410L739 511Z" fill="#19435d" stroke="#19435d"></path><path d="M793 274L805 225L738 268Z" fill="#15384f" stroke="#15384f"></path><path d="M900 292L805 225L793 274Z" fill="#00101c" stroke="#00101c"></path><path d="M821 105L732 77L737 195Z" fill="#081a28" stroke="#081a28"></path><path d="M798 600L801 529L739 511Z" fill="#1d4e6b" stroke="#1d4e6b"></path><path d="M819 0L701 0L732 77Z" fill="#1d4e6b" stroke="#1d4e6b"></path><path d="M732 77L701 0L614 104Z" fill="#19435d" stroke="#19435d"></path><path d="M691 600L798 600L739 511Z" fill="#205a7a" stroke="#205a7a"></path><path d="M134 0L0 0L93 125Z" fill="#081a28" stroke="#081a28"></path><path d="M900 202L821 105L805 225Z" fill="#00101c" stroke="#00101c"></path><path d="M805 225L821 105L737 195Z" fill="#15384f" stroke="#15384f"></path><path d="M900 292L793 274L806 410Z" fill="#19435d" stroke="#19435d"></path><path d="M900 292L806 410L900 423Z" fill="#19435d" stroke="#19435d"></path><path d="M900 423L806 410L801 529Z" fill="#0c2435" stroke="#0c2435"></path><path d="M900 526L900 423L801 529Z" fill="#15384f" stroke="#15384f"></path><path d="M900 292L900 202L805 225Z" fill="#15384f" stroke="#15384f"></path><path d="M900 600L900 526L801 529Z" fill="#00101c" stroke="#00101c"></path><path d="M900 68L819 0L821 105Z" fill="#0c2435" stroke="#0c2435"></path><path d="M821 105L819 0L732 77Z" fill="#277297" stroke="#277297"></path><path d="M798 600L900 600L801 529Z" fill="#205a7a" stroke="#205a7a"></path><path d="M900 202L900 68L821 105Z" fill="#15384f" stroke="#15384f"></path><path d="M900 68L900 0L819 0Z" fill="#1d4e6b" stroke="#1d4e6b"></path></g></svg>